<svg version="1.0" xmlns="http://www.w3.org/2000/svg"
 width="668px" style="transform:scale(1,1.001);" height="375.75px" viewBox="0 0 320.000000 180.000000"
 preserveAspectRatio="xMidYMid meet">
<g transform="translate(0.000000,180.000000) scale(0.100000,-0.100000)"
fill="#000000" stroke="none">
<path d="M0 905 l0 -895 1600 0 1600 0 0 895 0 895 -1600 0 -1600 0 0 -895z m1666 490
c53 -16 95 -49 138 -108 25 -34 27 -43 21 -95 -3 -31 -12 -75 -20 -97 -14 -39
-45 -157 -45 -169 0 -3 9 -6 19 -6 11 0 22 -4 26 -9 3 -5 33 -19 68 -31 34
-11 89 -35 121 -53 65 -35 84 -66 85 -141 1 -21 15 -68 31 -103 17 -34 30 -69
30 -76 0 -16 65 -141 94 -182 29 -39 76 -147 76 -173 0 -11 7 -23 16 -26 10
-4 14 -15 12 -33 l-3 -28 -704 -3 c-388 -1 -709 2 -713 6 -5 5 -4 49 2 98 7
49 11 96 10 104 -1 8 -1 51 -1 95 2 130 7 124 -106 127 l-97 3 60 65 c74 80
87 102 103 165 18 71 45 111 94 134 51 24 168 41 287 41 49 0 91 4 94 8 9 15
-15 86 -40 115 -28 33 -30 69 -9 141 8 28 20 71 26 96 14 56 79 123 135 138
58 15 134 14 190 -3z"/>
</g>
</svg>
